<svg xmlns="http://www.w3.org/2000/svg" xmlns:xlink="http://www.w3.org/1999/xlink" width="500" zoomAndPan="magnify" viewBox="0 0 375 374.999991" height="500" preserveAspectRatio="xMidYMid meet" version="1.0"><defs><g/><clipPath id="dd307b543f"><path d="M 85.035156 199.71875 L 289.964844 199.71875 L 289.964844 228.371094 L 85.035156 228.371094 Z M 85.035156 199.71875 " clip-rule="nonzero"/></clipPath><clipPath id="0c91e9b479"><path d="M 89.535156 199.71875 L 285.464844 199.71875 C 286.65625 199.71875 287.804688 200.195312 288.648438 201.039062 C 289.492188 201.882812 289.964844 203.027344 289.964844 204.21875 L 289.964844 223.871094 C 289.964844 225.066406 289.492188 226.210938 288.648438 227.054688 C 287.804688 227.898438 286.65625 228.371094 285.464844 228.371094 L 89.535156 228.371094 C 87.050781 228.371094 85.035156 226.359375 85.035156 223.871094 L 85.035156 204.21875 C 85.035156 201.734375 87.050781 199.71875 89.535156 199.71875 Z M 89.535156 199.71875 " clip-rule="nonzero"/></clipPath><clipPath id="2acd89a5d6"><path d="M 117.050781 155.078125 L 153.265625 155.078125 L 153.265625 190.347656 L 117.050781 190.347656 Z M 117.050781 155.078125 " clip-rule="nonzero"/></clipPath><clipPath id="22bb89977a"><path d="M 139.09375 157.503906 L 152.660156 183.0625 C 153.476562 184.601562 153.429688 186.453125 152.53125 187.945312 C 151.632812 189.4375 150.019531 190.347656 148.28125 190.347656 L 122.167969 190.347656 C 120.425781 190.347656 118.8125 189.4375 117.914062 187.945312 C 117.019531 186.453125 116.96875 184.601562 117.785156 183.0625 L 131.355469 157.503906 C 132.113281 156.070312 133.601562 155.175781 135.222656 155.175781 C 136.84375 155.175781 138.332031 156.070312 139.09375 157.503906 Z M 139.09375 157.503906 " clip-rule="nonzero"/></clipPath><clipPath id="5f40b712bd"><path d="M 187.5 154.410156 L 220.097656 154.410156 L 220.097656 187.007812 L 187.5 187.007812 Z M 187.5 154.410156 " clip-rule="nonzero"/></clipPath><clipPath id="78a8a9cd0d"><path d="M 203.796875 154.410156 C 194.796875 154.410156 187.5 161.707031 187.5 170.707031 C 187.5 179.710938 194.796875 187.007812 203.796875 187.007812 C 212.800781 187.007812 220.097656 179.710938 220.097656 170.707031 C 220.097656 161.707031 212.800781 154.410156 203.796875 154.410156 Z M 203.796875 154.410156 " clip-rule="nonzero"/></clipPath><clipPath id="2f246810c0"><path d="M 187.5 154.410156 L 219.75 154.410156 L 219.75 186.660156 L 187.5 186.660156 Z M 187.5 154.410156 " clip-rule="nonzero"/></clipPath><clipPath id="495e86eb9e"><path d="M 203.792969 154.410156 C 194.796875 154.410156 187.5 161.707031 187.5 170.703125 C 187.5 179.703125 194.796875 187 203.792969 187 C 212.792969 187 220.089844 179.703125 220.089844 170.703125 C 220.089844 161.707031 212.792969 154.410156 203.792969 154.410156 Z M 203.792969 154.410156 " clip-rule="nonzero"/></clipPath></defs><rect x="-37.5" width="450" fill="#ffffff" y="-37.499999" height="449.999989" fill-opacity="1"/><rect x="-37.5" width="450" fill="#000000" y="-37.499999" height="449.999989" fill-opacity="1"/><g clip-path="url(#dd307b543f)"><g clip-path="url(#0c91e9b479)"><path fill="#b40202" d="M 85.035156 199.71875 L 289.964844 199.71875 L 289.964844 228.371094 L 85.035156 228.371094 Z M 85.035156 199.71875 " fill-opacity="1" fill-rule="nonzero"/></g></g><g clip-path="url(#2acd89a5d6)"><g clip-path="url(#22bb89977a)"><path fill="#b40202" d="M 113.917969 150.214844 L 156.558594 150.214844 L 156.558594 190.347656 L 113.917969 190.347656 Z M 113.917969 150.214844 " fill-opacity="1" fill-rule="nonzero"/></g></g><g clip-path="url(#5f40b712bd)"><g clip-path="url(#78a8a9cd0d)"><path fill="#b40202" d="M 187.5 154.410156 L 220.097656 154.410156 L 220.097656 187.007812 L 187.5 187.007812 Z M 187.5 154.410156 " fill-opacity="1" fill-rule="nonzero"/></g></g><g clip-path="url(#2f246810c0)"><g clip-path="url(#495e86eb9e)"><path stroke-linecap="butt" transform="matrix(0.75, 0, 0, 0.75, 187.499992, 154.410079)" fill="none" stroke-linejoin="miter" d="M 21.72397 0.000103453 C 9.729178 0.000103453 0.0000104167 9.729271 0.0000104167 21.724063 C 0.0000104167 33.724064 9.729178 43.453231 21.72397 43.453231 C 33.723971 43.453231 43.453138 33.724064 43.453138 21.724063 C 43.453138 9.729271 33.723971 0.000103453 21.72397 0.000103453 Z M 21.72397 0.000103453 " stroke="#000000" stroke-width="8" stroke-opacity="1" stroke-miterlimit="4"/></g></g><g fill="#ffffff" fill-opacity="1"><g transform="translate(84.327857, 187.583337)"><g><path d="M 11.65625 0.25 C 8.78125 0.25 6.691406 -0.398438 5.390625 -1.703125 C 4.085938 -3.015625 3.4375 -5.109375 3.4375 -7.984375 L 3.4375 -9.953125 C 3.4375 -10.597656 3.757812 -10.921875 4.40625 -10.921875 L 10.1875 -10.921875 C 10.84375 -10.921875 11.171875 -10.597656 11.171875 -9.953125 L 11.171875 -8.578125 C 11.171875 -7.492188 11.390625 -6.734375 11.828125 -6.296875 C 12.273438 -5.859375 13.035156 -5.640625 14.109375 -5.640625 L 22.6875 -5.640625 C 23.757812 -5.640625 24.515625 -5.859375 24.953125 -6.296875 C 25.398438 -6.734375 25.625 -7.492188 25.625 -8.578125 L 25.625 -11.265625 C 25.625 -12.347656 25.398438 -13.109375 24.953125 -13.546875 C 24.515625 -13.984375 23.757812 -14.203125 22.6875 -14.203125 L 12.25 -14.203125 C 9.375 -14.203125 7.289062 -14.847656 6 -16.140625 C 4.707031 -17.429688 4.0625 -19.515625 4.0625 -22.390625 L 4.0625 -26.359375 C 4.0625 -29.234375 4.707031 -31.316406 6 -32.609375 C 7.289062 -33.898438 9.375 -34.546875 12.25 -34.546875 L 23.671875 -34.546875 C 26.546875 -34.546875 28.625 -33.898438 29.90625 -32.609375 C 31.195312 -31.316406 31.84375 -29.234375 31.84375 -26.359375 L 31.84375 -24.40625 C 31.84375 -23.75 31.519531 -23.421875 30.875 -23.421875 L 25.140625 -23.421875 C 24.484375 -23.421875 24.15625 -23.75 24.15625 -24.40625 L 24.15625 -25.71875 C 24.15625 -26.800781 23.929688 -27.5625 23.484375 -28 C 23.046875 -28.445312 22.289062 -28.671875 21.21875 -28.671875 L 14.609375 -28.671875 C 13.523438 -28.671875 12.757812 -28.445312 12.3125 -28 C 11.875 -27.5625 11.65625 -26.800781 11.65625 -25.71875 L 11.65625 -23.03125 C 11.65625 -21.945312 11.875 -21.1875 12.3125 -20.75 C 12.757812 -20.3125 13.523438 -20.09375 14.609375 -20.09375 L 24.984375 -20.09375 C 27.859375 -20.09375 29.945312 -19.445312 31.25 -18.15625 C 32.5625 -16.863281 33.21875 -14.78125 33.21875 -11.90625 L 33.21875 -7.984375 C 33.21875 -5.109375 32.570312 -3.015625 31.28125 -1.703125 C 29.988281 -0.398438 27.890625 0.25 24.984375 0.25 Z M 11.65625 0.25 "/></g></g></g><g fill="#ffffff" fill-opacity="1"><g transform="translate(118.428974, 187.583337)"><g><path d="M 34 -1.328125 C 34.070312 -1.191406 34.109375 -1.023438 34.109375 -0.828125 C 34.109375 -0.273438 33.734375 0 32.984375 0 L 27.828125 0 C 27.472656 0 27.195312 -0.0625 27 -0.1875 C 26.800781 -0.320312 26.640625 -0.550781 26.515625 -0.875 L 24.109375 -7 L 9.5 -7 L 7.109375 -0.875 C 6.972656 -0.550781 6.804688 -0.320312 6.609375 -0.1875 C 6.421875 -0.0625 6.160156 0 5.828125 0 L 0.59375 0 C -0.15625 0 -0.53125 -0.273438 -0.53125 -0.828125 C -0.53125 -1.023438 -0.484375 -1.222656 -0.390625 -1.421875 L 12.390625 -33.421875 C 12.617188 -34.003906 13.0625 -34.296875 13.71875 -34.296875 L 19.890625 -34.296875 C 20.253906 -34.296875 20.53125 -34.226562 20.71875 -34.09375 C 20.914062 -33.96875 21.082031 -33.742188 21.21875 -33.421875 Z M 16.65625 -26.015625 L 11.765625 -13.375 L 21.859375 -13.375 L 16.953125 -26.015625 Z M 16.65625 -26.015625 "/></g></g></g><g fill="#ffffff" fill-opacity="1"><g transform="translate(150.080277, 187.583337)"><g><path d="M 11.65625 0.25 C 8.78125 0.25 6.691406 -0.398438 5.390625 -1.703125 C 4.085938 -3.015625 3.4375 -5.109375 3.4375 -7.984375 L 3.4375 -9.953125 C 3.4375 -10.597656 3.757812 -10.921875 4.40625 -10.921875 L 10.1875 -10.921875 C 10.84375 -10.921875 11.171875 -10.597656 11.171875 -9.953125 L 11.171875 -8.578125 C 11.171875 -7.492188 11.390625 -6.734375 11.828125 -6.296875 C 12.273438 -5.859375 13.035156 -5.640625 14.109375 -5.640625 L 22.6875 -5.640625 C 23.757812 -5.640625 24.515625 -5.859375 24.953125 -6.296875 C 25.398438 -6.734375 25.625 -7.492188 25.625 -8.578125 L 25.625 -11.265625 C 25.625 -12.347656 25.398438 -13.109375 24.953125 -13.546875 C 24.515625 -13.984375 23.757812 -14.203125 22.6875 -14.203125 L 12.25 -14.203125 C 9.375 -14.203125 7.289062 -14.847656 6 -16.140625 C 4.707031 -17.429688 4.0625 -19.515625 4.0625 -22.390625 L 4.0625 -26.359375 C 4.0625 -29.234375 4.707031 -31.316406 6 -32.609375 C 7.289062 -33.898438 9.375 -34.546875 12.25 -34.546875 L 23.671875 -34.546875 C 26.546875 -34.546875 28.625 -33.898438 29.90625 -32.609375 C 31.195312 -31.316406 31.84375 -29.234375 31.84375 -26.359375 L 31.84375 -24.40625 C 31.84375 -23.75 31.519531 -23.421875 30.875 -23.421875 L 25.140625 -23.421875 C 24.484375 -23.421875 24.15625 -23.75 24.15625 -24.40625 L 24.15625 -25.71875 C 24.15625 -26.800781 23.929688 -27.5625 23.484375 -28 C 23.046875 -28.445312 22.289062 -28.671875 21.21875 -28.671875 L 14.609375 -28.671875 C 13.523438 -28.671875 12.757812 -28.445312 12.3125 -28 C 11.875 -27.5625 11.65625 -26.800781 11.65625 -25.71875 L 11.65625 -23.03125 C 11.65625 -21.945312 11.875 -21.1875 12.3125 -20.75 C 12.757812 -20.3125 13.523438 -20.09375 14.609375 -20.09375 L 24.984375 -20.09375 C 27.859375 -20.09375 29.945312 -19.445312 31.25 -18.15625 C 32.5625 -16.863281 33.21875 -14.78125 33.21875 -11.90625 L 33.21875 -7.984375 C 33.21875 -5.109375 32.570312 -3.015625 31.28125 -1.703125 C 29.988281 -0.398438 27.890625 0.25 24.984375 0.25 Z M 11.65625 0.25 "/></g></g></g><g fill="#ffffff" fill-opacity="1"><g transform="translate(184.181397, 187.583337)"><g><path d="M 12.640625 0.25 C 9.703125 0.25 7.515625 -0.46875 6.078125 -1.90625 C 4.640625 -3.34375 3.921875 -5.535156 3.921875 -8.484375 L 3.921875 -25.875 C 3.921875 -28.8125 4.640625 -30.988281 6.078125 -32.40625 C 7.515625 -33.832031 9.703125 -34.546875 12.640625 -34.546875 L 27.09375 -34.546875 C 30.03125 -34.546875 32.207031 -33.832031 33.625 -32.40625 C 35.050781 -30.988281 35.765625 -28.8125 35.765625 -25.875 L 35.765625 -8.484375 C 35.765625 -5.535156 35.050781 -3.34375 33.625 -1.90625 C 32.207031 -0.46875 30.03125 0.25 27.09375 0.25 Z M 24.984375 -6.265625 C 26.097656 -6.265625 26.90625 -6.519531 27.40625 -7.03125 C 27.914062 -7.539062 28.171875 -8.347656 28.171875 -9.453125 L 28.171875 -24.890625 C 28.171875 -26.003906 27.914062 -26.8125 27.40625 -27.3125 C 26.90625 -27.820312 26.097656 -28.078125 24.984375 -28.078125 L 14.703125 -28.078125 C 13.585938 -28.078125 12.773438 -27.820312 12.265625 -27.3125 C 11.765625 -26.8125 11.515625 -26.003906 11.515625 -24.890625 L 11.515625 -9.453125 C 11.515625 -8.347656 11.765625 -7.539062 12.265625 -7.03125 C 12.773438 -6.519531 13.585938 -6.265625 14.703125 -6.265625 Z M 24.984375 -6.265625 "/></g></g></g><g fill="#ffffff" fill-opacity="1"><g transform="translate(221.957208, 187.583337)"><g><path d="M 28.171875 -34.296875 C 28.828125 -34.296875 29.15625 -33.96875 29.15625 -33.3125 L 29.15625 -28.8125 C 29.15625 -28.15625 28.828125 -27.828125 28.171875 -27.828125 L 11.765625 -27.828125 L 11.765625 -19.84375 L 22.6875 -19.84375 C 23.34375 -19.84375 23.671875 -19.515625 23.671875 -18.859375 L 23.671875 -14.359375 C 23.671875 -13.703125 23.34375 -13.375 22.6875 -13.375 L 11.765625 -13.375 L 11.765625 -0.984375 C 11.765625 -0.328125 11.4375 0 10.78125 0 L 5.140625 0 C 4.492188 0 4.171875 -0.328125 4.171875 -0.984375 L 4.171875 -33.3125 C 4.171875 -33.96875 4.492188 -34.296875 5.140625 -34.296875 Z M 28.171875 -34.296875 "/></g></g></g><g fill="#ffffff" fill-opacity="1"><g transform="translate(250.423767, 187.583337)"><g><path d="M 29.890625 -34.296875 C 30.546875 -34.296875 30.875 -33.96875 30.875 -33.3125 L 30.875 -28.421875 C 30.875 -27.765625 30.546875 -27.4375 29.890625 -27.4375 L 19.359375 -27.4375 L 19.359375 -0.984375 C 19.359375 -0.328125 19.03125 0 18.375 0 L 12.734375 0 C 12.085938 0 11.765625 -0.328125 11.765625 -0.984375 L 11.765625 -27.4375 L 1.21875 -27.4375 C 0.570312 -27.4375 0.25 -27.765625 0.25 -28.421875 L 0.25 -33.3125 C 0.25 -33.96875 0.570312 -34.296875 1.21875 -34.296875 Z M 29.890625 -34.296875 "/></g></g></g><g fill="#ffffff" fill-opacity="1"><g transform="translate(279.632535, 187.583337)"><g/></g></g><g fill="#ffffff" fill-opacity="1"><g transform="translate(159.904183, 217.421338)"><g><path d="M 6.703125 0 L 1 0 L 1 -9.578125 L 6.703125 -9.578125 L 6.703125 -8.484375 L 2.265625 -8.484375 L 2.265625 -5.59375 L 6.21875 -5.59375 L 6.21875 -4.5 L 2.265625 -4.5 L 2.265625 -1.078125 L 6.703125 -1.078125 Z M 6.703125 0 "/></g></g></g><g fill="#ffffff" fill-opacity="1"><g transform="translate(183.199072, 217.421338)"><g><path d="M 7.640625 0 L 6.375 0 C 6.007812 -2.769531 5.175781 -4.15625 3.875 -4.15625 L 2.265625 -4.15625 L 2.265625 0 L 1 0 L 1 -9.40625 C 1.96875 -9.582031 2.832031 -9.671875 3.59375 -9.671875 C 4.738281 -9.671875 5.644531 -9.425781 6.3125 -8.9375 C 6.976562 -8.457031 7.3125 -7.804688 7.3125 -6.984375 C 7.3125 -5.878906 6.789062 -5.085938 5.75 -4.609375 C 6.25 -4.273438 6.632812 -3.785156 6.90625 -3.140625 C 7.175781 -2.492188 7.421875 -1.445312 7.640625 0 Z M 6.09375 -6.890625 C 6.09375 -8.003906 5.257812 -8.5625 3.59375 -8.5625 C 3.0625 -8.5625 2.617188 -8.539062 2.265625 -8.5 L 2.265625 -5.203125 L 3.828125 -5.203125 C 5.335938 -5.203125 6.09375 -5.765625 6.09375 -6.890625 Z M 6.09375 -6.890625 "/></g></g></g><g fill="#ffffff" fill-opacity="1"><g transform="translate(207.238009, 217.421338)"><g><path d="M 7.34375 -6.8125 C 7.34375 -5.882812 6.96875 -5.132812 6.21875 -4.5625 C 5.476562 -4 4.5 -3.71875 3.28125 -3.71875 C 2.96875 -3.71875 2.628906 -3.738281 2.265625 -3.78125 L 2.265625 0 L 1 0 L 1 -9.4375 C 1.96875 -9.59375 2.820312 -9.671875 3.5625 -9.671875 C 4.738281 -9.671875 5.660156 -9.40625 6.328125 -8.875 C 7.003906 -8.34375 7.34375 -7.65625 7.34375 -6.8125 Z M 6.078125 -6.75 C 6.078125 -7.976562 5.234375 -8.59375 3.546875 -8.59375 C 3.085938 -8.59375 2.660156 -8.570312 2.265625 -8.53125 L 2.265625 -4.921875 C 2.722656 -4.847656 3.109375 -4.8125 3.421875 -4.8125 C 5.191406 -4.8125 6.078125 -5.457031 6.078125 -6.75 Z M 6.078125 -6.75 "/></g></g></g></svg>